<svg width="164" height="34" viewBox="0 0 164 34" fill="none" xmlns="http://www.w3.org/2000/svg">
<path d="M60.6861 27.5294C58.563 27.5294 56.6382 27.0814 54.9119 26.1854C53.2054 25.2698 51.8561 24.0134 50.864 22.4161C49.8917 20.7994 49.4055 18.978 49.4055 16.9522C49.4055 14.9264 49.8917 13.1148 50.864 11.5175C51.8561 9.90074 53.2054 8.64433 54.9119 7.74828C56.6382 6.83276 58.5729 6.375 60.7159 6.375C62.5216 6.375 64.1487 6.68667 65.5972 7.31C67.0656 7.93334 68.2958 8.82938 69.288 9.99813L66.1925 12.8031C64.7837 11.2058 63.0375 10.4072 60.954 10.4072C59.6642 10.4072 58.5133 10.6896 57.5014 11.2545C56.4894 11.8 55.6957 12.5694 55.1202 13.5628C54.5646 14.5563 54.2868 15.6861 54.2868 16.9522C54.2868 18.2184 54.5646 19.3482 55.1202 20.3416C55.6957 21.335 56.4894 22.1142 57.5014 22.6791C58.5133 23.2245 59.6642 23.4972 60.954 23.4972C63.0375 23.4972 64.7837 22.6888 66.1925 21.0721L69.288 23.8771C68.2958 25.0653 67.0656 25.9711 65.5972 26.5944C64.1288 27.2178 62.4918 27.5294 60.6861 27.5294Z" fill="#4DB6BC"/>
<path d="M76.4134 6.72562H81.2352V23.3219H91.6824V27.1788H76.4134V6.72562Z" fill="#4DB6BC"/>
<path d="M112.142 22.796H102.468L100.623 27.1788H95.682L104.968 6.72562H109.731L119.047 27.1788H113.987L112.142 22.796ZM110.624 19.2021L107.32 11.3714L104.016 19.2021H110.624Z" fill="#4DB6BC"/>
<path d="M131.924 27.5294C130.277 27.5294 128.679 27.3151 127.132 26.8866C125.604 26.4386 124.373 25.8639 123.441 25.1627L125.078 21.598C125.971 22.2408 127.032 22.757 128.263 23.1466C129.493 23.5362 130.723 23.731 131.953 23.731C133.322 23.731 134.334 23.5362 134.989 23.1466C135.644 22.7375 135.971 22.2019 135.971 21.5396C135.971 21.0526 135.773 20.6533 135.376 20.3416C134.999 20.0104 134.503 19.7475 133.888 19.5527C133.293 19.3579 132.479 19.1436 131.447 18.9099C129.86 18.5398 128.56 18.1697 127.548 17.7996C126.536 17.4294 125.663 16.8353 124.929 16.0172C124.215 15.1991 123.857 14.1082 123.857 12.7447C123.857 11.5565 124.185 10.4851 124.84 9.53063C125.494 8.55667 126.477 7.78724 127.786 7.22235C129.116 6.65745 130.733 6.375 132.638 6.375C133.967 6.375 135.267 6.53083 136.537 6.8425C137.807 7.15417 138.918 7.60219 139.871 8.18657L138.382 11.7805C136.458 10.7091 134.533 10.1734 132.608 10.1734C131.259 10.1734 130.257 10.3877 129.602 10.8163C128.967 11.2448 128.649 11.8097 128.649 12.5109C128.649 13.2122 129.017 13.7381 129.751 14.0888C130.505 14.4199 131.646 14.7511 133.174 15.0822C134.761 15.4523 136.061 15.8224 137.073 16.1925C138.085 16.5626 138.948 17.147 139.662 17.9456C140.396 18.7443 140.763 19.8254 140.763 21.1889C140.763 22.3577 140.426 23.429 139.752 24.403C139.097 25.3575 138.105 26.1172 136.775 26.6821C135.446 27.247 133.828 27.5294 131.924 27.5294Z" fill="#4DB6BC"/>
<path d="M154.773 27.5294C153.126 27.5294 151.529 27.3151 149.981 26.8866C148.453 26.4386 147.223 25.8639 146.291 25.1627L147.928 21.598C148.821 22.2408 149.882 22.757 151.112 23.1466C152.343 23.5362 153.573 23.731 154.803 23.731C156.172 23.731 157.184 23.5362 157.839 23.1466C158.494 22.7375 158.821 22.2019 158.821 21.5396C158.821 21.0526 158.623 20.6533 158.226 20.3416C157.849 20.0104 157.353 19.7475 156.738 19.5527C156.142 19.3579 155.329 19.1436 154.297 18.9099C152.71 18.5398 151.41 18.1697 150.398 17.7996C149.386 17.4294 148.513 16.8353 147.779 16.0172C147.064 15.1991 146.707 14.1082 146.707 12.7447C146.707 11.5565 147.035 10.4851 147.689 9.53063C148.344 8.55667 149.326 7.78724 150.636 7.22235C151.966 6.65745 153.583 6.375 155.488 6.375C156.817 6.375 158.117 6.53083 159.387 6.8425C160.657 7.15417 161.768 7.60219 162.72 8.18657L161.232 11.7805C159.307 10.7091 157.383 10.1734 155.458 10.1734C154.109 10.1734 153.107 10.3877 152.452 10.8163C151.817 11.2448 151.499 11.8097 151.499 12.5109C151.499 13.2122 151.866 13.7381 152.601 14.0888C153.355 14.4199 154.496 14.7511 156.023 15.0822C157.611 15.4523 158.911 15.8224 159.923 16.1925C160.935 16.5626 161.798 17.147 162.512 17.9456C163.246 18.7443 163.613 19.8254 163.613 21.1889C163.613 22.3577 163.276 23.429 162.601 24.403C161.946 25.3575 160.954 26.1172 159.625 26.6821C158.295 27.247 156.678 27.5294 154.773 27.5294Z" fill="#4DB6BC"/>
<rect width="14.8748" height="2.12499" fill="#4DB6BC"/>
<rect y="6.37506" width="14.8748" height="2.12499" fill="#4DB6BC"/>
<rect y="12.7499" width="14.8748" height="2.12499" fill="#4DB6BC"/>
<rect x="34" y="33.9999" width="14.8748" height="2.12499" transform="rotate(-180 34 33.9999)" fill="#4DB6BC"/>
<rect x="33.9993" y="27.6248" width="14.8748" height="2.12499" transform="rotate(-180 33.9993 27.6248)" fill="#4DB6BC"/>
<rect x="33.9993" y="21.2499" width="14.8748" height="2.12499" transform="rotate(-180 33.9993 21.2499)" fill="#4DB6BC"/>
<rect x="33.9993" width="14.8749" height="2.12497" transform="rotate(90 33.9993 0)" fill="#C5C5C5"/>
<rect x="27.6247" width="14.8749" height="2.12497" transform="rotate(90 27.6247 0)" fill="#C5C5C5"/>
<rect x="21.2497" width="14.8749" height="2.12497" transform="rotate(90 21.2497 0)" fill="#C5C5C5"/>
<rect y="34" width="14.8749" height="2.12497" transform="rotate(-90 0 34)" fill="#C5C5C5"/>
<rect x="6.375" y="34" width="14.8749" height="2.12497" transform="rotate(-90 6.375 34)" fill="#C5C5C5"/>
<rect x="12.75" y="34" width="14.8749" height="2.12497" transform="rotate(-90 12.75 34)" fill="#C5C5C5"/>
</svg>
